<?xml version="1.0" standalone="no"?>
<!DOCTYPE svg PUBLIC "-//W3C//DTD SVG 20010904//EN"
 "http://www.w3.org/TR/2001/REC-SVG-20010904/DTD/svg10.dtd">
<svg version="1.0" xmlns="http://www.w3.org/2000/svg"
 width="772.000000pt" height="772.000000pt" viewBox="0 0 772.000000 772.000000"
 preserveAspectRatio="xMidYMid meet">
<metadata>
Created by potrace 1.14, written by Peter Selinger 2001-2017
</metadata>
<g transform="translate(0.000000,772.000000) scale(0.100000,-0.100000)"
fill="#000000" stroke="none">
<path d="M1205 6718 c-8 -23 -56 -182 -70 -233 -23 -86 -63 -286 -75 -380 -6
-49 -14 -101 -16 -115 -28 -159 -25 -631 6 -825 5 -33 12 -82 15 -110 3 -27 8
-58 11 -67 3 -9 7 -27 9 -40 37 -197 123 -492 214 -729 47 -124 227 -565 242
-596 17 -32 7 -47 -32 -49 -140 -5 -386 -49 -504 -88 -317 -108 -620 -289
-855 -512 -30 -29 -75 -71 -99 -93 -24 -23 -41 -44 -37 -48 7 -8 6 -7 131 -17
50 -4 101 -9 115 -12 133 -22 712 -22 840 1 14 2 52 6 85 9 33 3 82 10 110 15
27 5 51 8 52 7 2 -1 -34 -38 -80 -82 -156 -152 -269 -296 -396 -506 -20 -34
-21 -37 -4 -31 10 3 23 9 28 13 6 4 33 15 60 25 139 49 357 187 634 399 58 44
106 75 108 69 2 -6 27 -50 55 -97 130 -217 382 -474 661 -675 76 -55 90 -69
89 -91 0 -3 -3 -39 -6 -80 -3 -41 -9 -108 -12 -148 -3 -40 -7 -82 -9 -92 -3
-14 2 -20 15 -20 10 0 20 -6 23 -14 3 -7 20 -16 39 -19 18 -3 128 -24 243 -47
116 -23 221 -44 235 -46 14 -3 93 -18 175 -35 180 -35 147 -29 380 -73 105
-20 208 -41 230 -46 35 -8 245 -49 330 -64 46 -9 75 -15 93 -20 9 -3 34 -7 54
-10 21 -3 56 -10 78 -15 42 -9 47 -7 69 37 11 21 9 24 -26 38 -328 136 -484
240 -558 375 -60 112 -31 244 87 387 51 63 68 74 68 46 0 -37 96 -299 151
-411 93 -191 216 -340 349 -422 41 -26 51 -28 46 -14 -4 17 -20 96 -31 158 -3
17 -12 71 -20 120 -23 129 -25 143 -55 305 -11 58 -22 119 -24 135 -3 17 -8
43 -12 60 -6 25 3 19 57 -44 242 -279 554 -524 1027 -809 l152 -91 -16 37
c-47 112 -87 223 -129 357 -94 303 -137 422 -190 531 -51 105 -135 239 -194
308 -47 55 -196 202 -216 214 -25 13 -15 23 45 46 25 10 61 24 80 33 19 8 44
19 55 23 179 75 213 91 430 200 199 101 378 200 437 241 14 11 29 19 32 19 24
0 395 257 561 389 252 199 533 462 720 675 133 151 460 574 451 584 -2 1 -30
-5 -62 -13 -32 -9 -117 -32 -189 -51 -437 -118 -423 -115 -522 -109 -50 4
-104 8 -120 10 -158 19 -758 26 -997 12 -71 -5 -132 -10 -135 -11 -3 -2 -37
-7 -76 -10 -38 -3 -79 -8 -90 -10 -11 -2 -42 -7 -70 -10 -208 -29 -369 -65
-605 -133 -85 -25 -168 -49 -185 -53 -16 -5 -68 -20 -115 -34 -128 -40 -259
-73 -316 -81 -49 -6 -52 -5 -95 34 -91 84 -261 185 -384 229 -242 85 -503 99
-774 41 -51 -12 -97 -17 -100 -12 -34 40 -176 221 -224 287 -33 44 -106 137
-163 206 -56 69 -166 206 -245 305 -128 162 -301 371 -385 465 -96 109 -159
177 -258 283 -75 81 -123 141 -148 190 -21 40 -38 76 -38 80 0 5 -8 21 -18 35
-17 25 -67 162 -76 207 -2 11 -9 34 -16 50 -6 17 -11 31 -10 33 1 1 -3 32 -10
67 -12 65 -12 65 -46 65 -19 0 -37 -6 -39 -12z m5175 -3262 c0 -2 -8 -10 -17
-17 -16 -13 -17 -12 -4 4 13 16 21 21 21 13z m-40 -40 c0 -2 -8 -10 -17 -17
-16 -13 -17 -12 -4 4 13 16 21 21 21 13z m-40 -50 c0 -2 -7 -7 -16 -10 -8 -3
-12 -2 -9 4 6 10 25 14 25 6z m-91 -94 c-35 -37 -73 -74 -84 -81 -11 -7 16 23
60 68 44 45 82 81 84 81 2 0 -24 -31 -60 -68z"/>
</g>
</svg>
